<?xml version="1.0" encoding="UTF-8" standalone="no"?>
<!DOCTYPE svg PUBLIC "-//W3C//DTD SVG 1.0//EN"
 "http://www.w3.org/TR/2001/REC-SVG-20010904/DTD/svg10.dtd" [
 <!ATTLIST svg xmlns:xlink CDATA #FIXED "http://www.w3.org/1999/xlink">
]>
<!-- Generated by dot version 2.8 (Thu May 18 21:02:58 UTC 2006)
     For user: (housel) Peter S. Housel -->
<!-- Title: G Pages: 1 -->
<svg width="680pt" height="332pt"
 viewBox = "0 0 680 332"
 xmlns="http://www.w3.org/2000/svg" xmlns:xlink="http://www.w3.org/1999/xlink">
<g id="graph0" class="graph" style="font-family:Times-Roman;font-size:14.00;">
<title>G</title>
<polygon style="fill:white;stroke:white;" points="-2,334 -2,-2 682,-2 682,334 -2,334"/>
<!-- object -->
<g id="node1" class="node"><title>object</title>
<polygon style="fill:none;stroke:black;" points="535,4 453,4 453,40 535,40 535,4"/>
<text text-anchor="middle" x="494" y="27" style="font-family:Bitstream Vera Sans;font-style:oblique;">&lt;object&gt;</text>
</g>
<!-- synchronization -->
<g id="node5" class="node"><title>synchronization</title>
<polygon style="fill:none;stroke:black;" points="494,76 344,76 344,112 494,112 494,76"/>
<text text-anchor="middle" x="419" y="99" style="font-family:Bitstream Vera Sans;font-style:oblique;">&lt;synchronization&gt;</text>
</g>
<!-- object&#45;&gt;synchronization -->
<g id="edge16" class="edge"><title>object&#45;&gt;synchronization</title>
<path style="fill:none;stroke:black;" d="M468,47C458,57 447,67 438,76"/>
<polygon style="fill:black;stroke:black;" points="465,45 475,40 470,50 465,45"/>
</g>
<!-- thread -->
<g id="node19" class="node"><title>thread</title>
<polygon style="fill:none;stroke:black;" points="613,76 527,76 527,112 613,112 613,76"/>
<text text-anchor="middle" x="570" y="99" style="font-family:Bitstream Vera Sans;">&lt;thread&gt;</text>
</g>
<!-- object&#45;&gt;thread -->
<g id="edge20" class="edge"><title>object&#45;&gt;thread</title>
<path style="fill:none;stroke:black;" d="M521,47C531,57 542,67 551,76"/>
<polygon style="fill:black;stroke:black;" points="518,49 513,40 523,44 518,49"/>
</g>
<!-- exclusive_lock -->
<g id="node2" class="node"><title>exclusive_lock</title>
<polygon style="fill:none;stroke:black;" points="304,220 166,220 166,256 304,256 304,220"/>
<text text-anchor="middle" x="235" y="243" style="font-family:Bitstream Vera Sans;font-style:oblique;">&lt;exclusive&#45;lock&gt;</text>
</g>
<!-- read_write_lock -->
<g id="node9" class="node"><title>read_write_lock</title>
<polygon style="fill:none;stroke:black;" points="148,292 4,292 4,328 148,328 148,292"/>
<text text-anchor="middle" x="76" y="315" style="font-family:Bitstream Vera Sans;">&lt;read&#45;write&#45;lock&gt;</text>
</g>
<!-- exclusive_lock&#45;&gt;read_write_lock -->
<g id="edge8" class="edge"><title>exclusive_lock&#45;&gt;read_write_lock</title>
<path style="fill:none;stroke:black;" d="M186,260C163,270 137,282 116,292"/>
<polygon style="fill:black;stroke:black;" points="184,257 195,256 187,263 184,257"/>
</g>
<!-- recursive_lock -->
<g id="node11" class="node"><title>recursive_lock</title>
<polygon style="fill:none;stroke:black;" points="304,292 166,292 166,328 304,328 304,292"/>
<text text-anchor="middle" x="235" y="315" style="font-family:Bitstream Vera Sans;">&lt;recursive&#45;lock&gt;</text>
</g>
<!-- exclusive_lock&#45;&gt;recursive_lock -->
<g id="edge10" class="edge"><title>exclusive_lock&#45;&gt;recursive_lock</title>
<path style="fill:none;stroke:black;" d="M235,266C235,275 235,284 235,292"/>
<polygon style="fill:black;stroke:black;" points="232,266 235,256 239,266 232,266"/>
</g>
<!-- simple_lock -->
<g id="node15" class="node"><title>simple_lock</title>
<polygon style="fill:none;stroke:black;" points="440,292 322,292 322,328 440,328 440,292"/>
<text text-anchor="middle" x="381" y="315" style="font-family:Bitstream Vera Sans;">&lt;simple&#45;lock&gt;</text>
</g>
<!-- exclusive_lock&#45;&gt;simple_lock -->
<g id="edge14" class="edge"><title>exclusive_lock&#45;&gt;simple_lock</title>
<path style="fill:none;stroke:black;" d="M281,261C301,271 325,282 345,292"/>
<polygon style="fill:black;stroke:black;" points="279,264 272,256 282,258 279,264"/>
</g>
<!-- lock -->
<g id="node3" class="node"><title>lock</title>
<polygon style="fill:none;stroke:black;" points="342,148 274,148 274,184 342,184 342,148"/>
<text text-anchor="middle" x="308" y="171" style="font-family:Bitstream Vera Sans;font-style:oblique;">&lt;lock&gt;</text>
</g>
<!-- lock&#45;&gt;exclusive_lock -->
<g id="edge2" class="edge"><title>lock&#45;&gt;exclusive_lock</title>
<path style="fill:none;stroke:black;" d="M283,191C273,201 262,211 253,220"/>
<polygon style="fill:black;stroke:black;" points="280,189 290,184 285,194 280,189"/>
</g>
<!-- semaphore -->
<g id="node13" class="node"><title>semaphore</title>
<polygon style="fill:none;stroke:black;" points="440,220 322,220 322,256 440,256 440,220"/>
<text text-anchor="middle" x="381" y="243" style="font-family:Bitstream Vera Sans;">&lt;semaphore&gt;</text>
</g>
<!-- lock&#45;&gt;semaphore -->
<g id="edge12" class="edge"><title>lock&#45;&gt;semaphore</title>
<path style="fill:none;stroke:black;" d="M333,191C343,201 354,211 363,220"/>
<polygon style="fill:black;stroke:black;" points="331,194 326,184 336,189 331,194"/>
</g>
<!-- synchronization&#45;&gt;lock -->
<g id="edge4" class="edge"><title>synchronization&#45;&gt;lock</title>
<path style="fill:none;stroke:black;" d="M382,118C367,128 349,139 336,148"/>
<polygon style="fill:black;stroke:black;" points="381,115 391,112 385,120 381,115"/>
</g>
<!-- notification -->
<g id="node7" class="node"><title>notification</title>
<polygon style="fill:none;stroke:black;" points="478,148 360,148 360,184 478,184 478,148"/>
<text text-anchor="middle" x="419" y="171" style="font-family:Bitstream Vera Sans;">&lt;notification&gt;</text>
</g>
<!-- synchronization&#45;&gt;notification -->
<g id="edge6" class="edge"><title>synchronization&#45;&gt;notification</title>
<path style="fill:none;stroke:black;" d="M419,122C419,131 419,140 419,148"/>
<polygon style="fill:black;stroke:black;" points="416,122 419,112 423,122 416,122"/>
</g>
<!-- synchronous_thread -->
<g id="node18" class="node"><title>synchronous_thread</title>
<polygon style="fill:none;stroke:black;" points="676,148 496,148 496,184 676,184 676,148"/>
<text text-anchor="middle" x="586" y="171" style="font-family:Bitstream Vera Sans;">&lt;synchronous&#45;thread&gt;</text>
</g>
<!-- thread&#45;&gt;synchronous_thread -->
<g id="edge18" class="edge"><title>thread&#45;&gt;synchronous_thread</title>
<path style="fill:none;stroke:black;" d="M577,122C579,131 581,140 582,148"/>
<polygon style="fill:black;stroke:black;" points="574,123 574,112 580,121 574,123"/>
</g>
</g>
</svg>
